<?xml version="1.0" encoding="UTF-8"?>
<svg width="84px" height="48px" viewBox="0 0 84 48" version="1.1" xmlns="http://www.w3.org/2000/svg" xmlns:xlink="http://www.w3.org/1999/xlink">
    <!-- Generator: Sketch 51.3 (57544) - http://www.bohemiancoding.com/sketch -->
    <title>cmc-logo-blue</title>
    <desc>Created with Sketch.</desc>
    <defs></defs>
    <g id="ppc-brand" stroke="none" stroke-width="1" fill="none" fill-rule="evenodd">
        <path d="M24.2971403,46.5685443 C24.75897,46.5685443 25.3625726,46.4282858 26.1058117,46.2168252 L26.7222321,46.0338454 L26.7222321,47.4814923 L26.3155578,47.5977566 C25.4884203,47.8376981 24.7733415,47.9918069 24.1425496,47.9918069 C22.0245027,47.9918069 20.5799738,46.7380639 20.5799738,44.0477932 C20.5799738,41.4562302 22.0245027,40.1035845 24.1425496,40.1035845 C24.7733415,40.1035845 25.4884203,40.2436479 26.3155578,40.4835894 L26.7222321,40.5996586 L26.7222321,42.0476957 L26.1058117,41.8645208 C25.3625726,41.6669105 24.75897,41.5118264 24.2971403,41.5118264 C22.9499102,41.5118264 22.2626034,42.3287979 22.2626034,44.0477932 C22.2626034,45.7525482 22.9499102,46.5685443 24.2971403,46.5685443 Z M4.63577659,46.5685443 C5.09877163,46.5685443 5.70101474,46.4282858 6.44464225,46.2168252 L7.0620337,46.0338454 L7.0620337,47.4814923 L6.65535937,47.5977566 C5.82763922,47.8376981 5.11256049,47.9918069 4.48079755,47.9918069 C2.36352749,47.9918069 0.918415899,46.7380639 0.918415899,44.0477932 C0.918415899,41.4562302 2.36352749,40.1035845 4.48079755,40.1035845 C5.11256049,40.1035845 5.82763922,40.2436479 6.65535937,40.4835894 L7.0620337,40.5996586 L7.0620337,42.0476957 L6.44464225,41.8645208 C5.70101474,41.6669105 5.09877163,41.5118264 4.63577659,41.5118264 C3.28893492,41.5118264 2.60221075,42.3287979 2.60221075,44.0477932 C2.60221075,45.7525482 3.28893492,46.5685443 4.63577659,46.5685443 Z M10.3008626,47.8981712 L8.68853679,47.8981712 L8.68853679,41.6173616 C8.68853679,40.9699098 9.01131269,40.6593514 9.61413844,40.461741 C10.4694363,40.1939039 11.1990807,40.1100219 11.858033,40.1100219 C12.7556685,40.1100219 13.4146207,40.3207023 13.849067,40.7153377 C14.6218259,40.3628383 15.4771238,40.1100219 16.3598051,40.1100219 C18.3092784,40.1100219 19.1088381,41.1940502 19.1088381,42.7862473 L19.1088381,47.8981712 L17.4959297,47.8981712 L17.4959297,42.927091 C17.4959297,42.1103146 17.1587823,41.5325043 16.1776368,41.5325043 C15.519073,41.5325043 15.0696726,41.7016337 14.5515221,41.8988539 C14.6492094,42.137625 14.7195132,42.4479883 14.7195132,42.8291636 L14.7195132,47.8981712 L13.1201994,47.8981712 L13.1201994,42.927091 C13.1201994,42.0962692 12.7836346,41.5325043 11.7879234,41.5325043 C11.4096037,41.5325043 11.0021525,41.5603999 10.3008626,41.7859059 L10.3008626,47.8981712 Z M32.4648077,47.8981712 L30.8511224,47.8981712 L30.8511224,41.6173616 C30.8511224,40.9699098 31.1738983,40.6593514 31.7761414,40.461741 C32.6327987,40.1939039 33.3622489,40.1100219 34.0208128,40.1100219 C34.9180598,40.1100219 35.5779831,40.3207023 36.0135947,40.7153377 C36.7834404,40.3628383 37.6387383,40.1100219 38.5218081,40.1100219 C40.4726408,40.1100219 41.2714237,41.1940502 41.2714237,42.7862473 L41.2714237,47.8981712 L39.6592921,47.8981712 L39.6592921,42.927091 C39.6592921,42.1103146 39.3221447,41.5325043 38.340805,41.5325043 C37.6808817,41.5325043 37.2322582,41.7016337 36.7141077,41.8988539 C36.8125718,42.137625 36.8820988,42.4479883 36.8820988,42.8291636 L36.8820988,47.8981712 L35.282785,47.8981712 L35.282785,42.927091 C35.282785,42.0962692 34.9468028,41.5325043 33.9499264,41.5325043 C33.571995,41.5325043 33.1653207,41.5603999 32.4648077,41.7859059 L32.4648077,47.8981712 Z M49.3167392,45.7160693 C49.3167392,45.7160693 49.3223713,45.8869544 49.3223713,46.3578639 C49.3223713,46.8287735 49.1079642,47.2241892 48.6721585,47.5491831 C48.1499296,47.9350402 46.3787406,47.9918069 46.3787406,47.9918069 C45.7388208,47.9918069 42.6837139,48.1716654 42.6837139,45.6464277 C42.6837139,43.8096074 44.2960397,43.2659351 46.1196653,43.2659351 L47.7607341,43.2659351 L47.7607341,42.7716167 C47.7607341,41.8376006 47.4971921,41.4622775 46.245513,41.4622775 C45.6145269,41.4622775 44.759229,41.6319922 43.9167489,41.8844184 L43.8530483,41.9039259 L43.8530483,40.4941234 C44.7635016,40.2280419 45.5925812,40.1035845 46.3857321,40.1035845 C48.4076454,40.1035845 49.3167392,40.8518898 49.3167392,42.7292855 L49.3167392,45.7160693 Z M47.7737461,46.2365277 C47.7737461,46.127286 47.7752998,46.0069251 47.7752998,46.0069251 L47.7752998,44.4492563 L45.8949651,44.4492563 C44.8848824,44.4492563 44.2469048,44.7799073 44.2469048,45.5970739 C44.2469048,46.7792246 45.7388208,46.6953426 46.3830132,46.6953426 C46.3830132,46.6953426 47.3973685,46.6508656 47.6201266,46.5365521 C47.7084918,46.4910997 47.7737461,46.4189222 47.7737461,46.2365277 Z M54.8536471,40.1607413 L54.8536471,41.534455 C54.564081,41.4880273 54.3067536,41.4622775 54.0589425,41.4622775 C52.8088171,41.4622775 52.5872243,41.7997562 52.5872243,42.7345525 L52.5872243,47.8981712 L50.9488744,47.8981712 L50.9488744,42.7292855 C50.9488744,40.8518898 51.8579682,40.1035845 53.8798815,40.1035845 C54.1981906,40.1035845 54.522326,40.1186052 54.8536471,40.1607413 Z M61.4460826,47.8981712 L59.1274175,44.1788832 L58.4298176,44.952158 C57.9670168,45.4456962 58.0810177,45.7736162 58.0810177,46.6602292 L58.0810177,47.8981712 L56.4818981,47.8981712 L56.4818981,37.8317484 L58.0810177,37.8317484 L58.0810177,43.218337 L60.7181861,40.2013168 L62.7094143,40.2013168 L60.3577336,42.8151183 L63.3130169,47.8981712 L61.4460826,47.8981712 Z M76.5105116,46.3069495 L76.5105116,47.6525725 C76.1762773,47.787564 75.7119228,47.9701536 74.9257635,47.9701536 C73.257117,47.9701536 72.4725113,47.0402341 72.4725113,45.2654475 L72.4725113,41.5118264 L71.349593,41.5118264 L71.349593,40.2013168 L72.4725113,40.2013168 L72.4725113,37.8303828 L74.0704656,37.8303828 L74.0704656,40.2013168 L76.1545259,40.2013168 L76.1545259,41.5118264 L74.0704656,41.5118264 L74.0704656,45.322019 C74.0704656,46.1393806 74.3394455,46.6311631 75.115506,46.6311631 C75.7927139,46.6311631 76.2166729,46.4659351 76.5105116,46.3069495 Z M69.9835246,46.2248232 L69.9835246,47.585662 L69.8850604,47.6176542 C68.889155,47.9408925 68.2742883,47.9910266 67.3914127,47.9910266 C65.1479066,47.9910266 63.6183139,46.7023653 63.6183139,44.0831017 C63.6183139,41.3218239 65.2871547,40.1035845 67.1944845,40.1035845 C69.2985483,40.1035845 70.6869508,41.3073884 70.6869508,43.8722263 C70.6869508,44.3643989 70.4476849,44.6176055 69.9442943,44.6176055 L65.2304455,44.6176055 C65.3291039,45.998732 66.2409167,46.6245306 67.5040541,46.6245306 C68.172911,46.6245306 68.7633074,46.6028773 69.633171,46.3354304 L69.9835246,46.2248232 Z M67.152341,41.3425018 C66.0030102,41.3425018 65.301332,42.1386003 65.2304455,43.4344794 L69.0730713,43.4344794 C69.0730713,42.279444 68.5127774,41.3425018 67.152341,41.3425018 Z M79.8911133,44.5799561 C78.5163055,44.35406 77.7594718,43.6675933 77.7594718,42.4975372 C77.7594718,40.9065106 79.063199,40.0955864 80.6207577,40.0955864 C81.5698587,40.0955864 82.3084368,40.2327237 83.1996634,40.4835894 L83.1996634,41.9066569 L83.0881872,41.870178 C82.2763922,41.6319922 81.4612957,41.4047306 80.6335756,41.4047306 C79.9332567,41.4047306 79.3298484,41.7375274 79.3298484,42.41307 C79.3298484,42.9068032 79.6376701,43.1707388 80.4236353,43.2979273 L81.8537927,43.4875396 C83.2287948,43.7124604 84,44.448476 84,45.6179468 C84,47.2700317 82.596255,48 80.9433394,48 C80.0072505,48 79.2443963,47.923921 78.2051822,47.6398927 L77.9389212,47.5630334 L77.9389212,46.1729334 L78.3890984,46.3194343 C79.5452265,46.6512558 80.1517422,46.6892953 80.9305216,46.6892953 C81.7102721,46.6892953 82.4294292,46.4669105 82.4294292,45.7029993 C82.4294292,45.2233114 82.1216074,44.8955864 81.3500138,44.7695684 L79.8911133,44.5799561 Z M24.2835456,23.6625213 L24.2835456,29.4256035 L22.8364919,29.8393563 C19.5423134,30.7895635 16.6926799,31.4077542 14.183107,31.4077542 C5.74995549,31.4077542 0,26.4154109 0,15.7021214 C0,5.3838576 5.74995549,0 14.183107,0 C16.6926799,0 19.5423134,0.561814192 22.8364919,1.51338698 L24.2835456,1.92323823 L24.2835456,7.687881 L22.0000324,7.00902219 C19.0402823,6.22833455 16.6377187,5.60604731 14.7938954,5.60604731 C9.43177588,5.60604731 6.69944489,8.86339917 6.69944489,15.7021214 C6.69944489,22.4895391 9.43177588,25.741624 14.7938954,25.741624 C16.6377187,25.741624 19.0402823,25.1823458 22.0000324,24.3407949 L24.2835456,23.6625213 Z M83.7178139,23.6625213 L83.7178139,29.4256035 L82.2707602,29.8393563 C78.9767758,30.7895635 76.1269482,31.4077542 73.6171811,31.4077542 C65.1842237,31.4077542 59.4342682,26.4154109 59.4342682,15.7021214 C59.4342682,5.3838576 65.1842237,0 73.6171811,0 C76.1269482,0 78.9767758,0.561814192 82.2707602,1.51338698 L83.7178139,1.92323823 L83.7178139,7.687881 L81.4341064,7.00902219 C78.4745505,6.22833455 76.0719869,5.60604731 74.2283578,5.60604731 C68.8660441,5.60604731 66.1335189,8.86339917 66.1335189,15.7021214 C66.1335189,22.4895391 68.8660441,25.741624 74.2283578,25.741624 C76.0719869,25.741624 78.4745505,25.1823458 81.4341064,24.3407949 L83.7178139,23.6625213 Z M55.5543543,29.2609607 C55.5543543,30.2232626 54.7769344,31.0045355 53.8187056,31.0045355 C52.8229944,31.0045355 48.837819,31.0045355 48.837819,31.0045355 L48.837819,8.40458425 L48.8418974,8.3965862 L48.8418974,5.64252621 C48.8418974,2.94523287 50.1833012,1.65579127 52.6957873,0.833552792 C53.6887796,0.522604243 54.6380747,0.273299195 55.5543543,0.0727627408 L55.5543543,29.2609607 Z M43.8691677,31.0045355 C42.8355856,31.0045355 38.8865332,31.0045355 38.8865332,31.0045355 L38.8865332,3.0607169 C39.8039781,3.26222872 40.7548269,3.512119 41.747625,3.82170202 C44.2570037,4.64237991 45.6015148,5.9333821 45.6015148,8.63126067 L45.6015148,11.3823945 L45.6046222,11.3905877 L45.6046222,29.2609607 C45.6046222,30.2232626 44.827008,31.0045355 43.8691677,31.0045355 Z M33.9584716,31.0045355 C32.925278,31.0045355 28.9756429,31.0045355 28.9756429,31.0045355 L28.9756429,3.0607169 C29.893282,3.26222872 30.8441308,3.512119 31.8367347,3.82170202 C34.3463076,4.64237991 35.6908188,5.9333821 35.6908188,8.63126067 L35.6908188,11.3823945 L35.6937319,11.3905877 L35.6937319,29.2609607 C35.6937319,30.2232626 34.9167004,31.0045355 33.9584716,31.0045355 Z" id="cmc-logo-blue" fill="#00DEFF"></path>
    </g>
</svg>