<?xml version="1.0" encoding="utf-8"?>
<!-- Generator: Adobe Illustrator 23.1.0, SVG Export Plug-In . SVG Version: 6.00 Build 0)  -->
<svg version="1.1" id="Layer_1" xmlns="http://www.w3.org/2000/svg" xmlns:xlink="http://www.w3.org/1999/xlink" x="0px" y="0px"
	 viewBox="0 0 570 140" style="enable-background:new 0 0 570 140;" xml:space="preserve">
<style type="text/css">
	.st0{fill:#0D2740;}
	.st1{fill:#6D6E70;}
</style>
<g>
	<polygon class="st0" points="9.5,24 30.4,24 30.4,69.4 40,69.4 40,24 60.9,24 60.9,14.3 9.5,14.3 	"/>
	<path class="st0" d="M123.8,46c2-3.1,3-7,3-11.5c0-3.1-0.5-5.9-1.4-8.3c-0.9-2.5-2.2-4.6-3.9-6.3c-1.7-1.7-3.8-3.1-6.3-4
		c-2.5-0.9-5.3-1.4-8.4-1.4H67.3v55h9.5V24h30c3.3,0,5.9,0.9,7.8,2.6c1.8,1.7,2.8,4.4,2.8,8s-0.9,6.3-2.6,8.2
		c-1.8,1.9-4.4,2.8-7.9,2.8h-23v8.5h20.6l13.9,15.3H132l-16.6-16.7C119,51.3,121.8,49.1,123.8,46z"/>
	<polygon class="st0" points="173.9,32.3 174.9,33.9 196,69.4 207.6,69.4 179.2,22.3 	"/>
	<path class="st0" d="M176.3,17.4l-0.5-0.8c-0.6-1-1.2-1.7-1.9-2.3s-1.6-0.8-2.7-0.8s-2,0.3-2.7,0.8c-0.8,0.6-1.4,1.3-2,2.3
		l-31.6,52.7h11l23.5-39.8l0,0L176.3,17.4z"/>
	<path class="st0" d="M263,21.8c-2.4-2.4-5.2-4.2-8.5-5.5c-3.3-1.3-6.9-2-10.8-2h-31.9v55h31.9c3.9,0,7.5-0.7,10.8-2.2
		c3.3-1.4,6.1-3.4,8.5-5.9s4.2-5.5,5.6-8.9c1.3-3.4,2-7.1,2-11.1s-0.7-7.6-2-10.9C267.2,27.1,265.4,24.2,263,21.8z M259.7,48.9
		c-0.9,2.2-2.1,4.1-3.6,5.7c-1.5,1.6-3.4,2.8-5.5,3.7s-4.4,1.4-6.9,1.4h-22.3V24h22.3c2.5,0,4.8,0.4,6.9,1.3
		c2.1,0.9,3.9,2.1,5.5,3.7c1.5,1.6,2.7,3.4,3.6,5.6c0.9,2.2,1.3,4.6,1.3,7.2S260.5,46.7,259.7,48.9z"/>
	<rect x="295" y="37.4" class="st0" width="30.5" height="8.1"/>
	<polygon class="st0" points="288,59.8 288,24 327.6,24 327.6,14.3 278.4,14.3 278.4,69.4 327.6,69.4 327.6,59.8 	"/>
	<g>
		<path class="st0" d="M345.3,64.1c0,1.4-0.5,2.7-1.5,3.6c-1,1-2.2,1.5-3.7,1.5c-1.4,0-2.6-0.5-3.6-1.5c-0.9-1-1.4-2.2-1.4-3.6
			s0.5-2.7,1.4-3.6c0.9-1,2.1-1.5,3.6-1.5c1.4,0,2.7,0.5,3.7,1.5S345.3,62.7,345.3,64.1z"/>
		<path class="st0" d="M376.2,68.6c-3.8,0-7.3-0.7-10.5-2.1s-6-3.4-8.4-5.8c-2.4-2.5-4.2-5.4-5.5-8.8c-1.3-3.4-2-7.1-2-11
			c0-4,0.7-7.6,2-10.9s3.2-6.1,5.5-8.4c2.4-2.3,5.2-4.1,8.4-5.4c3.2-1.3,6.7-1.9,10.5-1.9h29.5v9.5h-29.5c-2.4,0-4.7,0.4-6.8,1.3
			c-2.1,0.9-3.9,2.1-5.3,3.6s-2.7,3.4-3.5,5.5c-0.8,2.1-1.3,4.5-1.3,7.1c0,2.5,0.4,4.9,1.3,7.1c0.8,2.2,2,4.1,3.5,5.6
			c1.5,1.6,3.3,2.8,5.3,3.7c2.1,0.9,4.3,1.3,6.8,1.3h29.5v9.5L376.2,68.6L376.2,68.6z"/>
		<path class="st0" d="M438.2,68.6c-3.8,0-7.3-0.7-10.5-2.1s-6-3.4-8.4-5.8c-2.4-2.5-4.2-5.4-5.5-8.8c-1.3-3.4-2-7.1-2-11
			c0-4,0.7-7.6,2-10.9s3.2-6.1,5.5-8.4c2.4-2.3,5.2-4.1,8.4-5.4c3.2-1.3,6.7-1.9,10.5-1.9h13.2c3.9,0,7.5,0.6,10.8,1.9
			s6.1,3.1,8.4,5.5c2.3,2.3,4.2,5.1,5.5,8.4S478,37,478,40.9s-0.7,7.6-2,11s-3.2,6.3-5.5,8.8c-2.4,2.5-5.2,4.4-8.4,5.8
			c-3.2,1.4-6.8,2.1-10.7,2.1H438.2z M451.5,59.1c2.5,0,4.8-0.4,6.9-1.3c2.1-0.9,3.9-2.1,5.4-3.7c1.5-1.6,2.7-3.5,3.6-5.6
			c0.8-2.2,1.3-4.6,1.3-7.1s-0.4-4.9-1.3-7.1c-0.8-2.2-2-4-3.6-5.6c-1.5-1.5-3.3-2.8-5.4-3.6c-2.1-0.9-4.4-1.3-6.9-1.3h-13.2
			c-2.4,0-4.7,0.4-6.8,1.3c-2.1,0.9-3.9,2.1-5.3,3.6s-2.7,3.4-3.5,5.5c-0.8,2.1-1.3,4.5-1.3,7.1c0,2.5,0.4,4.9,1.3,7.1
			c0.8,2.2,2,4.1,3.5,5.6c1.5,1.6,3.3,2.8,5.3,3.7c2.1,0.9,4.3,1.3,6.8,1.3L451.5,59.1L451.5,59.1z"/>
		<path class="st0" d="M550.5,68.6l-10.4-38.2l-15.4,35.4c-0.5,1.1-1.2,2-2,2.7c-0.8,0.6-1.7,0.9-2.9,0.9c-2.2,0-3.9-1.2-4.9-3.6
			l-15.3-35.4l-10.4,38.2h-9.3l14-51.2c0.6-2.6,2.2-3.9,4.7-3.9c1,0,1.9,0.3,2.8,0.8s1.5,1.3,2,2.4l16.8,38.4L537,16.7
			c0.9-2.1,2.4-3.2,4.6-3.2c2.3,0,3.8,1.3,4.6,3.9l13.9,51.2C560.1,68.6,550.5,68.6,550.5,68.6z"/>
	</g>
	<g>
		<path class="st1" d="M133.6,94.4h4.4l5.5,15.3c0.7,2,1.3,4,2,6h0.2c0.7-2,1.3-4,2-6l5.5-15.3h4.4V123h-3.4v-15.9
			c0-2.5,0.3-5.9,0.5-8.4h-0.2l-2.3,6.5l-5.4,14.9h-2.4l-5.4-14.9l-2.3-6.5h-0.2c0.2,2.5,0.4,6,0.4,8.4V123h-3.3V94.4z"/>
		<path class="st1" d="M166.6,115.2v-13.4h3.6v13c0,3.9,1.2,5.6,4,5.6c2.2,0,3.7-1.1,5.7-3.6v-15h3.6V123h-3l-0.3-3.3h-0.1
			c-2,2.3-4.1,3.8-7,3.8C168.6,123.5,166.6,120.6,166.6,115.2z"/>
		<path class="st1" d="M192.6,118.8V91.9h3.6V119c0,1.1,0.5,1.5,1,1.5c0.2,0,0.4,0,0.7-0.1l0.5,2.7c-0.5,0.2-1.1,0.3-2.1,0.3
			C193.7,123.5,192.6,121.8,192.6,118.8z"/>
		<path class="st1" d="M206.3,116.4v-11.8h-3.2V102l3.3-0.2l0.4-5.9h3v5.9h5.7v2.9h-5.7v11.8c0,2.6,0.8,4.1,3.3,4.1
			c0.7,0,1.7-0.3,2.4-0.5l0.7,2.7c-1.2,0.4-2.6,0.8-3.9,0.8C207.8,123.5,206.3,120.7,206.3,116.4z"/>
		<path class="st1" d="M221.7,95.1c0-1.4,1.1-2.3,2.5-2.3c1.4,0,2.5,0.9,2.5,2.3c0,1.3-1.1,2.3-2.5,2.3
			C222.7,97.4,221.7,96.4,221.7,95.1z M222.3,101.8h3.6V123h-3.6V101.8z"/>
		<path class="st1" d="M259.1,114.2h-10.5l-2.8,8.7h-3.7l9.7-28.6h4l9.7,28.6h-3.8L259.1,114.2z M258.2,111.3l-1.4-4.4
			c-1.1-3.2-2-6.4-2.9-9.7h-0.2c-0.9,3.4-1.8,6.4-2.9,9.7l-1.4,4.4H258.2z"/>
		<path class="st1" d="M270,120.6l1.8-2.3c1.8,1.5,3.7,2.5,6.3,2.5c2.8,0,4.2-1.5,4.2-3.3c0-2.1-2.5-3.1-4.8-4
			c-3-1.1-6.3-2.5-6.3-6.1c0-3.4,2.7-6,7.3-6c2.6,0,4.9,1.1,6.6,2.4l-1.7,2.3c-1.5-1.1-3-1.9-4.9-1.9c-2.7,0-3.9,1.4-3.9,3
			c0,2,2.3,2.8,4.7,3.7c3.1,1.2,6.5,2.4,6.5,6.4c0,3.4-2.7,6.3-7.7,6.3C274.9,123.5,272,122.2,270,120.6z"/>
		<path class="st1" d="M290.2,120.6l1.8-2.3c1.8,1.5,3.7,2.5,6.3,2.5c2.8,0,4.2-1.5,4.2-3.3c0-2.1-2.5-3.1-4.8-4
			c-3-1.1-6.3-2.5-6.3-6.1c0-3.4,2.7-6,7.3-6c2.6,0,4.9,1.1,6.6,2.4l-1.7,2.3c-1.5-1.1-3-1.9-4.9-1.9c-2.7,0-3.9,1.4-3.9,3
			c0,2,2.3,2.8,4.7,3.7c3.1,1.2,6.5,2.4,6.5,6.4c0,3.4-2.7,6.3-7.7,6.3C295.1,123.5,292.2,122.2,290.2,120.6z"/>
		<path class="st1" d="M311.2,112.4c0-6.9,4.6-11.2,9.6-11.2c5.4,0,8.4,3.9,8.4,10c0,0.8-0.1,1.5-0.2,2h-14.3c0.2,4.5,3,7.4,7,7.4
			c2.1,0,3.7-0.6,5.3-1.7l1.3,2.3c-1.9,1.2-4.1,2.2-7,2.2C315.7,123.5,311.2,119.4,311.2,112.4z M326.1,110.7c0-4.3-2-6.6-5.3-6.6
			c-3,0-5.7,2.4-6.1,6.6H326.1z"/>
		<path class="st1" d="M336.6,116.4v-11.8h-3.2V102l3.3-0.2l0.4-5.9h3v5.9h5.7v2.9h-5.7v11.8c0,2.6,0.8,4.1,3.3,4.1
			c0.7,0,1.7-0.3,2.4-0.5l0.7,2.7c-1.2,0.4-2.6,0.8-3.9,0.8C338.1,123.5,336.6,120.7,336.6,116.4z"/>
		<path class="st1" d="M363.6,94.4h8.5c5.8,0,9.8,2,9.8,7c0,2.9-1.5,5.3-4.2,6.2v0.2c3.4,0.7,5.9,2.9,5.9,6.8
			c0,5.6-4.5,8.4-10.9,8.4h-9.1V94.4z M371.5,106.5c4.9,0,6.9-1.8,6.9-4.7c0-3.4-2.3-4.6-6.8-4.6h-4.4v9.3H371.5z M372.3,120.1
			c4.9,0,7.8-1.8,7.8-5.6c0-3.6-2.8-5.2-7.8-5.2h-5v10.8H372.3z"/>
		<path class="st1" d="M390.9,101.8h2.9l0.3,3.9h0.1c1.5-2.7,3.6-4.4,6-4.4c0.9,0,1.6,0.1,2.3,0.5l-0.7,3.1
			c-0.7-0.3-1.2-0.4-2.1-0.4c-1.8,0-3.9,1.3-5.3,4.9V123h-3.6V101.8z"/>
		<path class="st1" d="M406,112.4c0-7.1,4.6-11.2,9.8-11.2s9.8,4.1,9.8,11.2c0,7-4.6,11.1-9.8,11.1S406,119.4,406,112.4z M422,112.4
			c0-4.9-2.5-8.2-6.2-8.2c-3.7,0-6.1,3.3-6.1,8.2s2.5,8.1,6.1,8.1C419.5,120.5,422,117.3,422,112.4z"/>
		<path class="st1" d="M433.2,91.9h3.5V113h0.1l9.1-11.2h3.9l-7.1,8.5l8,12.7h-3.9l-6.2-10.2l-4,4.6v5.6h-3.5V91.9z"/>
		<path class="st1" d="M454.3,112.4c0-6.9,4.6-11.2,9.6-11.2c5.4,0,8.4,3.9,8.4,10c0,0.8-0.1,1.5-0.2,2h-14.3c0.2,4.5,3,7.4,7,7.4
			c2.1,0,3.7-0.6,5.3-1.7l1.3,2.3c-1.9,1.2-4.1,2.2-7,2.2C458.9,123.5,454.3,119.4,454.3,112.4z M469.2,110.7c0-4.3-2-6.6-5.3-6.6
			c-3,0-5.7,2.4-6.1,6.6H469.2z"/>
		<path class="st1" d="M479.5,101.8h2.9l0.3,3.9h0.1c1.5-2.7,3.6-4.4,6-4.4c0.9,0,1.6,0.1,2.3,0.5l-0.7,3.1
			c-0.7-0.3-1.2-0.4-2.1-0.4c-1.8,0-3.9,1.3-5.3,4.9V123h-3.6V101.8z"/>
		<path class="st1" d="M494.2,117.5c0-4.6,4-6.9,13-7.9c0-2.7-0.9-5.3-4.4-5.3c-2.5,0-4.7,1.1-6.4,2.3l-1.4-2.5c2-1.3,5-2.8,8.4-2.8
			c5.2,0,7.3,3.5,7.3,8.7v13h-2.9l-0.3-2.5h-0.1c-2,1.7-4.4,3-7,3C496.9,123.5,494.2,121.3,494.2,117.5z M507.3,117.8v-5.9
			c-7.1,0.9-9.6,2.6-9.6,5.3c0,2.4,1.6,3.4,3.7,3.4C503.5,120.6,505.2,119.7,507.3,117.8z"/>
		<path class="st1" d="M517.9,127c0-1.8,1.2-3.5,3.2-4.8v-0.2c-1.1-0.7-2-1.8-2-3.5c0-1.8,1.3-3.2,2.4-3.9v-0.2
			c-1.4-1.1-2.8-3.2-2.8-5.7c0-4.6,3.7-7.6,8-7.6c1.2,0,2.2,0.3,3,0.5h7.4v2.7h-4.3c1,1,1.7,2.5,1.7,4.4c0,4.5-3.4,7.4-7.7,7.4
			c-1.1,0-2.2-0.3-3.2-0.7c-0.8,0.7-1.4,1.4-1.4,2.5c0,1.4,0.9,2.3,3.7,2.3h4.1c4.9,0,7.4,1.6,7.4,5c0,3.9-4.1,7.3-10.7,7.3
			C521.5,132.7,517.9,130.7,517.9,127z M533.9,125.9c0-2-1.5-2.6-4.3-2.6h-3.7c-0.8,0-1.8-0.1-2.7-0.4c-1.5,1.1-2.2,2.3-2.2,3.6
			c0,2.3,2.3,3.7,6.2,3.7C531.2,130.3,533.9,128.2,533.9,125.9z M531.2,108.8c0-3.1-2-5-4.5-5s-4.5,1.8-4.5,5c0,3.1,2.1,5,4.5,5
			C529.1,113.8,531.2,111.9,531.2,108.8z"/>
		<path class="st1" d="M541.3,112.4c0-6.9,4.6-11.2,9.6-11.2c5.4,0,8.4,3.9,8.4,10c0,0.8-0.1,1.5-0.2,2h-14.3c0.2,4.5,3,7.4,7,7.4
			c2.1,0,3.7-0.6,5.3-1.7l1.3,2.3c-1.9,1.2-4.1,2.2-7,2.2C545.8,123.5,541.3,119.4,541.3,112.4z M556.1,110.7c0-4.3-2-6.6-5.3-6.6
			c-3,0-5.7,2.4-6.1,6.6H556.1z"/>
	</g>
</g>
</svg>
